<?xml version="1.0" encoding="UTF-8"?>
<svg xmlns="http://www.w3.org/2000/svg" xmlns:xlink="http://www.w3.org/1999/xlink" id="mozok" viewBox="0 0 872 862" shape-rendering="geometricPrecision" text-rendering="geometricPrecision">
  <style>
#mozok-s-path1_ts {animation: mozok-s-path1_ts__ts 3000ms linear infinite}@keyframes mozok-s-path1_ts__ts { 0% {transform: translate(4360.011404px,4310.001118px) scale(1.02,1.03);animation-timing-function: cubic-bezier(0.42,0,1,1)} 16.666667% {transform: translate(4360.011404px,4310.001118px) scale(0.99,1);animation-timing-function: cubic-bezier(0.42,0,1,1)} 33.333333% {transform: translate(4360.011404px,4310.001118px) scale(1.02,1.03);animation-timing-function: cubic-bezier(0.42,0,1,1)} 50% {transform: translate(4360.011404px,4310.001118px) scale(0.99,1);animation-timing-function: cubic-bezier(0.42,0,1,1)} 66.666667% {transform: translate(4360.011404px,4310.001118px) scale(1.02,1.03);animation-timing-function: cubic-bezier(0.42,0,1,1)} 83.333333% {transform: translate(4360.011404px,4310.001118px) scale(0.99,1);animation-timing-function: cubic-bezier(0.42,0,1,1)} 100% {transform: translate(4360.011404px,4310.001118px) scale(1.02,1.03)}}

#mozok-s-ellipse1_tr {animation: mozok-s-ellipse1_tr__tr 4500ms linear infinite}@keyframes mozok-s-ellipse1_tr__tr { 0% {transform: translate(435.342979px,430.999999px) rotate(-180deg)} 100% {transform: translate(435.342979px,430.999999px) rotate(180deg)}}

#mozok-u-copy-of-ellipse_tr {animation: mozok-u-copy-of-ellipse_tr__tr 4500ms linear infinite}@keyframes mozok-u-copy-of-ellipse_tr__tr { 0% {transform: translate(435.342979px,430.999999px) rotate(180deg)} 100% {transform: translate(435.342979px,430.999999px) rotate(-180deg)}}

#mozok-u-copy-of-ellipse2_tr {animation: mozok-u-copy-of-ellipse2_tr__tr 4500ms linear infinite}@keyframes mozok-u-copy-of-ellipse2_tr__tr { 0% {transform: translate(435.342979px,430.999999px) rotate(180deg)} 100% {transform: translate(435.342979px,430.999999px) rotate(-180deg)}}
</style>
  <g id="mozok-s-g1" transform="matrix(.1 0 0-.1 0 862)">
    <g id="mozok-s-path1_ts" transform="translate(4360.011404,4310.001118) scale(1.02,1.03)">
      <path id="mozok-s-path1" d="M3910,6449c-187-22-319-60-615-181-243-98-336-159-560-368-38-36-92-81-120-100-261-177-380-338-524-710-22-58-63-143-91-190-92-156-114-267-113-590c0-191,3-240,21-322c28-131,60-221,126-362c140-297,241-412,461-524c65-33,99-60,185-147c174-177,263-233,438-278c81-21,106-22,369-20l282,3l3-271l3-271l37-34c47-43,106-47,159-11c58,39,59,46,59,350c0,255,1,278,18,284c55,20,181,114,251,188l79,84l18-27c52-79,150-161,266-222l47-24l3-293l3-293l32-31c65-65,181-42,210,41c8,23,12,118,12,280l1,245l202-3c490-7,579,25,883,317c75,73,120,106,179,136c180,91,288,209,416,457c129,248,162,395,164,713c1,192-2,235-22,335-26,127-49,186-109,275-56,83-66,105-123,266-102,289-201,434-411,601-44,35-102,75-129,89-27,15-66,48-88,75-59,75-197,200-260,237-32,18-100,51-152,74-402,174-506,207-690,223-139,12-815,11-920-1Zm320-1666c0-1575,3-1498-64-1636-42-88-126-176-205-214l-56-28h-330c-317,0-333,1-413,24-45,13-108,40-140,61-53,33-238,214-308,300-62,74-89,91-151,94-97,4-140,39-165,129-10,39-9,49,11,91c42,86,128,119,197,77c36-22,71-74,80-120c5-22,12-31,26-31c39,0,85-29,143-91c130-141,264-265,311-289l49-25l325,1c361,1,359,1,418,68c57,66,62,102,62,483c0,189-3,343-7,343-3,0,26-71,7-86-73-55-235,23-272,97-32,60-19,117,37,169c25,24,33,25,131,24l104-1v184v183h-150c-121,0-155-3-175-16-41-27-295-305-316-346-23-46-92-98-128-98-39,0-90,36-107,75-8,19-14,62-14,96c0,56,3,64,34,95c25,25,43,34,68,34c28,0,43,10,89,58c104,108,162,177,207,245l44,68l224-3l224-3v613v612h-93c-84,0-96-2-128-26-96-71-238-131-462-195-66-19-80-27-88-48-48-129-146-245-251-294-29-14-91-43-138-65-56-26-103-58-136-90-92-91-154-259-154-418c0-90-15-127-114-269-75-109-110-135-178-135-89,0-128,40-128,132c0,102,87,198,166,184c38-8,35-16,54,159c20,181,56,291,136,412c97,145,186,210,447,321c31,14,47,27,47,39c0,31,56,116,105,162c56,51,145,94,315,151c85,29,155,61,220,100c52,32,104,60,115,63s122,5,248,6l227,1v-1427Zm851,1381c74-56,135-86,274-134c65-22,139-52,164-66c90-48,166-141,190-230c10-38,14-41,63-53c73-16,226-103,298-168c158-143,235-314,246-548c7-155,12-179,29-165c21,18,79,4,116-27c87-74,91-223,7-269-33-19-97-16-145,5-35,16-44,26-54,63-8,25-27,56-46,73-18,17-48,56-67,87-32,53-34,65-41,175-12,219-38,298-130,400-56,64-87,83-209,133-53,21-112,52-132,68-51,42-120,138-145,202-12,30-27,60-33,66-6,7-51,22-99,33-151,37-299,101-402,175-50,36-51,36-153,36h-102l1-610l1-610l216-1h217l60-82c33-45,85-113,116-152c31-38,64-85,73-103c15-30,20-32,54-27c74,11,132-54,132-147c0-102-114-178-204-137-25,12-46,38-100,126-14,24-71,95-126,158-54,63-105,124-112,134-12,17-33,20-171,26l-157,8l2-189c2-128,6-188,14-187c6,1,55,5,110,9c98,6,100,6,132-20c63-54,63-152,0-213-65-63-115-67-187-18-28,19-53,35-56,35s-5-166-3-368l3-369l30-48c17-27,50-63,74-80l43-30l306,1c288,0,310,1,353,21c53,24,162,118,299,257c52,53,113,105,136,117c35,16,43,26,49,57c7,40,44,85,87,108c88,46,205-28,216-136c4-45,2-51-38-94-44-48-94-70-143-64-23,3-53-23-224-192-287-283-300-289-673-297-290-7-386,3-476,47-74,36-156,120-190,194-57,124-55,71-61,1612-3,782-3,1429,0,1439c6,15,31,16,260,13l254-3l54-41ZM3728,5666c77-40,103-125,63-203-47-93-133-120-233-73-59,28-75,154-28,220c46,65,134,89,198,56Zm1467-6c63-39,76-137,30-216-29-50-68-74-119-74-80,0-130,39-146,115-15,72,2,119,58,162c36,27,52,33,94,33c33,0,62-7,83-20ZM3716,5321c32-19,74-92,74-127c0-69-45-140-106-169-32-15-44-16-91-6-42,10-59,20-80,47-55,73-38,173,42,242c29,26,44,32,83,32c29,0,59-8,78-19Zm1447,5c18-7,47-30,65-50c28-32,32-44,32-92c0-64-16-101-62-139-29-25-38-27-95-23-58,4-67,8-101,41-36,36-37,40-37,106c0,62,3,73,31,107c45,56,108,75,167,50ZM3061,5090c19-5,48-24,65-41c27-28,29-36,28-102c0-70-2-76-73-207-40-74-97-180-126-235s-81-152-115-215c-33-63-62-118-63-122-1-3,33-47,76-97s87-106,97-125l20-33l181-5c147-4,183-8,190-20c4-8,50-72,101-142c71-99,95-124,103-114c22,30,83,68,109,68c52,0,117-50,129-100c19-78-58-187-149-209-45-11-57-10-108,10-70,25-109,60-228,196l-89,103h-162l-162,1-71,82c-38,45-99,121-134,169-37,49-68,82-71,76-5-7-87-13-237-16-192-4-230-2-234,10-3,7-5,54-4,103l1,90l217,3c213,2,218,3,232,25c26,42,262,512,273,543c8,23,7,44-2,82-16,60-6,109,31,159c32,42,62,58,134,72c3,0,21-4,41-9Zm2696-10c75-33,108-119,78-201-9-24-19-52-22-61-3-11,25-71,73-155c94-168,179-322,212-385l25-48h219h219l-2-104-1-103-67-7c-99-9-360-7-379,3-14,7-47-23-172-153l-155-161-142-5-143-5-62-70c-90-102-208-213-242-226-22-10-42-10-82-1-97,20-137,66-138,159-1,56,17,89,68,127c35,27,112,27,151,2c32-21,19-32,136,109l83,100l144,5l144,6l37,40c20,22,69,76,109,119l73,80-37,70c-81,153-149,274-196,348-27,43-76,130-109,193-68,131-73,167-35,243c27,51,54,74,107,89c49,14,59,14,106-8Z" transform="translate(-4350.567749,-4253.561768)"></path>
    </g>
  </g>
  <g id="mozok-s-ellipse1_tr" transform="translate(435.342979,430.999999) rotate(180)">
    <ellipse id="mozok-s-ellipse1" rx="390.877836" ry="386.10581" transform="scale(0.88,0.88) translate(0,0)" paint-order="fill markers stroke" fill="#1055dd" fill-opacity="0" stroke="#050505" stroke-width="32" stroke-linecap="round" stroke-linejoin="round" stroke-dasharray="1000"></ellipse>
  </g>
  <g id="mozok-u-copy-of-ellipse_tr" transform="translate(435.342979,430.999999) rotate(-180)">
    <ellipse id="mozok-u-copy-of-ellipse" rx="390.877836" ry="386.10581" transform="scale(0.75,0.75) translate(0,0)" paint-order="fill markers stroke" fill="#1055dd" fill-opacity="0" stroke="#050505" stroke-width="32" stroke-linecap="round" stroke-linejoin="round" stroke-dasharray="1000"></ellipse>
  </g>
  <g id="mozok-u-copy-of-ellipse2_tr" transform="translate(435.342979,430.999999) rotate(-180)">
    <ellipse id="mozok-u-copy-of-ellipse2" rx="390.877836" ry="386.10581" transform="translate(0,0)" paint-order="fill markers stroke" fill="#1055dd" fill-opacity="0" stroke="#050505" stroke-width="32" stroke-linecap="round" stroke-linejoin="round" stroke-dasharray="1000"></ellipse>
  </g>
</svg>
