<?xml version="1.0" standalone="no"?>
<!DOCTYPE svg PUBLIC "-//W3C//DTD SVG 20010904//EN"
 "http://www.w3.org/TR/2001/REC-SVG-20010904/DTD/svg10.dtd">
<svg version="1.0" xmlns="http://www.w3.org/2000/svg"
 width="872.000000pt" height="862.000000pt" viewBox="0 0 872.000000 862.000000"
 preserveAspectRatio="xMidYMid meet">

<g transform="translate(0.000000,862.000000) scale(0.100000,-0.100000)"
fill="#black" stroke="#black">
<path d="M4205 8138 c-441 -25 -949 -135 -1310 -285 -311 -129 -670 -331 -885
-498 -270 -210 -432 -361 -620 -579 -78 -90 -220 -275 -265 -346 -27 -41 -67
-104 -90 -140 -39 -61 -209 -387 -247 -476 -53 -123 -112 -279 -133 -354 -13
-47 -31 -104 -39 -128 -21 -58 -81 -346 -106 -507 -30 -192 -43 -497 -31 -723
36 -659 236 -1280 599 -1857 158 -251 438 -581 651 -768 306 -267 532 -422
841 -577 447 -224 795 -332 1305 -405 634 -90 1386 7 1985 257 660 275 1150
641 1590 1188 47 58 93 113 102 124 35 39 199 307 276 453 477 895 575 1908
281 2893 -232 778 -689 1431 -1354 1935 -82 62 -209 149 -282 194 -127 77
-461 251 -533 276 -19 7 -55 22 -80 33 -121 56 -339 127 -535 176 -209 52
-558 102 -770 111 -82 4 -159 8 -170 9 -11 2 -92 -1 -180 -6z m626 -347 c531
-69 1022 -244 1489 -531 223 -136 536 -396 704 -584 250 -280 381 -464 529
-747 203 -386 310 -720 379 -1176 29 -196 32 -668 5 -858 -47 -324 -142 -693
-234 -903 -72 -163 -221 -449 -303 -578 -146 -229 -408 -535 -607 -705 -295
-254 -464 -369 -771 -523 -404 -203 -740 -306 -1197 -367 -236 -32 -652 -32
-888 0 -194 26 -466 81 -582 117 -198 63 -248 80 -369 131 -402 169 -668 336
-1023 640 -200 173 -470 487 -615 718 -338 537 -529 1147 -553 1765 -14 358
49 814 160 1155 19 60 35 113 35 118 0 6 30 78 66 161 277 634 606 1058 1149
1478 288 223 738 449 1117 562 248 74 541 128 783 146 180 13 555 3 726 -19z"/>
<path d="M4075 7641 c-483 -47 -906 -168 -1310 -374 -619 -316 -1129 -819
-1449 -1428 -192 -366 -303 -713 -361 -1134 -105 -752 76 -1550 503 -2230 137
-218 395 -520 582 -681 278 -241 461 -365 746 -507 134 -67 384 -175 439 -190
11 -3 72 -21 135 -41 142 -43 356 -88 560 -117 132 -19 197 -22 440 -22 254 1
303 4 455 27 447 68 782 173 1135 358 283 148 442 258 710 489 199 172 454
472 597 704 270 438 410 822 490 1350 23 151 25 200 25 440 0 240 -3 289 -26
440 -66 434 -167 746 -360 1115 -139 266 -260 437 -503 711 -165 187 -477 445
-703 581 -428 260 -865 414 -1380 489 -159 23 -576 34 -725 20z m705 -240
c400 -56 685 -144 1045 -323 259 -129 445 -256 700 -479 250 -218 500 -541
673 -869 171 -324 263 -609 329 -1015 23 -144 26 -187 26 -430 0 -290 -11
-396 -69 -670 -74 -346 -218 -696 -423 -1020 -230 -366 -606 -737 -976 -967
-403 -249 -805 -394 -1305 -469 -198 -30 -630 -33 -820 -6 -441 64 -755 163
-1125 355 -254 132 -419 246 -661 459 -169 148 -398 416 -521 609 -262 411
-415 830 -483 1324 -31 218 -31 532 -1 753 21 153 71 415 90 467 5 14 24 72
42 130 62 203 199 491 337 712 124 199 373 494 532 631 167 144 333 270 453
344 652 402 1423 568 2157 464z"/>
<path d="M4180 7310 c-221 -13 -507 -65 -730 -132 -509 -155 -1021 -479 -1352
-856 -223 -253 -329 -406 -452 -649 -173 -343 -257 -617 -312 -1018 -25 -184
-22 -518 6 -710 58 -402 150 -688 327 -1024 122 -233 218 -367 437 -618 143
-164 420 -394 628 -521 454 -277 942 -428 1490 -460 416 -25 944 68 1318 231
364 158 585 296 876 549 449 390 800 992 923 1584 95 456 94 846 -4 1285 -96
428 -306 864 -571 1189 -202 247 -305 347 -559 546 -167 131 -428 277 -675
379 -413 171 -898 251 -1350 225z m555 -211 c362 -50 637 -135 949 -294 239
-122 404 -236 638 -441 128 -113 345 -370 447 -531 233 -369 361 -717 427
-1158 26 -175 24 -561 -4 -740 -56 -359 -139 -615 -298 -920 -261 -500 -703
-934 -1213 -1189 -321 -162 -595 -245 -976 -296 -139 -19 -192 -21 -395 -17
-477 10 -843 101 -1272 318 -235 118 -358 203 -609 416 -136 116 -354 369
-464 538 -456 705 -579 1555 -339 2345 93 305 279 662 467 895 183 226 270
313 499 497 305 245 749 452 1142 533 368 77 672 90 1001 44z"/>
<path d="M3920 6439 c-193 -23 -287 -49 -560 -155 -298 -116 -398 -180 -621
-392 -36 -34 -101 -87 -143 -116 -102 -71 -218 -176 -266 -241 -86 -116 -177
-293 -241 -469 -16 -44 -50 -116 -74 -159 -86 -147 -109 -242 -120 -492 -13
-292 26 -515 135 -760 64 -146 132 -260 217 -362 62 -77 98 -103 223 -167 82
-42 113 -66 225 -175 141 -137 208 -186 312 -230 128 -54 207 -64 505 -59
l267 3 3 -272 c3 -261 4 -273 24 -293 27 -28 87 -48 125 -42 16 2 43 17 59 33
l28 29 2 275 c1 263 7 325 30 325 30 0 182 114 251 189 l76 82 28 -42 c42 -60
134 -140 212 -183 37 -20 76 -43 85 -50 16 -12 18 -41 18 -301 1 -315 2 -321
61 -345 58 -24 124 -8 156 39 16 23 18 56 21 289 l3 262 262 0 c303 0 373 8
477 53 104 46 190 109 333 246 92 88 140 126 197 155 149 77 228 147 316 282
112 172 201 384 234 554 40 211 33 535 -15 725 -24 96 -33 115 -112 243 -24
37 -69 140 -101 227 -70 189 -106 263 -178 366 -85 121 -246 264 -365 325 -29
14 -60 41 -78 66 -33 48 -144 158 -206 205 -64 48 -161 97 -290 146 -66 25
-162 64 -214 87 -113 49 -246 86 -356 98 -105 12 -848 12 -945 1z m310 -1656
c0 -1575 3 -1498 -64 -1636 -42 -88 -126 -176 -205 -214 l-56 -28 -330 0
c-317 0 -333 1 -413 24 -45 13 -108 40 -140 61 -53 33 -238 214 -308 300 -62
74 -89 91 -151 94 -97 4 -140 39 -165 129 -10 39 -9 49 11 91 42 86 128 119
197 77 36 -22 71 -74 80 -120 5 -22 12 -31 26 -31 39 0 85 -29 143 -91 130
-141 264 -265 311 -289 l49 -25 325 1 c361 1 359 1 418 68 57 66 62 102 62
483 0 189 -3 343 -7 343 -3 0 -22 -12 -41 -27 -73 -55 -187 -36 -224 38 -32
60 -19 117 37 169 25 24 33 25 131 24 l104 -1 0 184 0 183 -150 0 c-121 0
-155 -3 -175 -16 -41 -27 -295 -305 -316 -346 -23 -46 -92 -98 -128 -98 -39 0
-90 36 -107 75 -8 19 -14 62 -14 96 0 56 3 64 34 95 25 25 43 34 68 34 28 0
43 10 89 58 104 108 162 177 207 245 l44 68 224 -3 224 -3 0 613 0 612 -93 0
c-84 0 -96 -2 -128 -26 -96 -71 -238 -131 -462 -195 -66 -19 -80 -27 -88 -48
-48 -129 -146 -245 -251 -294 -29 -14 -91 -43 -138 -65 -56 -26 -103 -58 -136
-90 -92 -91 -154 -259 -154 -418 0 -90 -15 -127 -114 -269 -75 -109 -110 -135
-178 -135 -89 0 -128 40 -128 132 0 102 87 198 166 184 38 -8 35 -16 54 159
20 181 56 291 136 412 97 145 186 210 447 321 31 14 47 27 47 39 0 31 56 116
105 162 56 51 145 94 315 151 85 29 155 61 220 100 52 32 104 60 115 63 11 3
122 5 248 6 l227 1 0 -1427z m851 1381 c74 -56 135 -86 274 -134 65 -22 139
-52 164 -66 90 -48 166 -141 190 -230 10 -38 14 -41 63 -53 73 -16 226 -103
298 -168 158 -143 235 -314 246 -548 7 -155 12 -179 29 -165 21 18 79 4 116
-27 87 -74 91 -223 7 -269 -33 -19 -97 -16 -145 5 -35 16 -44 26 -54 63 -8 25
-27 56 -46 73 -18 17 -48 56 -67 87 -32 53 -34 65 -41 175 -12 219 -38 298
-130 400 -56 64 -87 83 -209 133 -53 21 -112 52 -132 68 -51 42 -120 138 -145
202 -12 30 -27 60 -33 66 -6 7 -51 22 -99 33 -151 37 -299 101 -402 175 -50
36 -51 36 -153 36 l-102 0 1 -610 1 -610 216 -1 217 0 60 -82 c33 -45 85 -113
116 -152 31 -38 64 -85 73 -103 15 -30 20 -32 54 -27 74 11 132 -54 132 -147
0 -102 -114 -178 -204 -137 -25 12 -46 38 -100 126 -14 24 -71 95 -126 158
-54 63 -105 124 -112 134 -12 17 -33 20 -171 26 l-157 8 2 -189 c2 -128 6
-188 14 -187 6 1 55 5 110 9 98 6 100 6 132 -20 63 -54 63 -152 0 -213 -65
-63 -115 -67 -187 -18 -28 19 -53 35 -56 35 -3 0 -5 -166 -3 -368 l3 -369 30
-48 c17 -27 50 -63 74 -80 l43 -30 306 1 c288 0 310 1 353 21 53 24 162 118
299 257 52 53 113 105 136 117 35 16 43 26 49 57 7 40 44 85 87 108 88 46 205
-28 216 -136 4 -45 2 -51 -38 -94 -44 -48 -94 -70 -143 -64 -23 3 -53 -23
-224 -192 -287 -283 -300 -289 -673 -297 -290 -7 -386 3 -476 47 -74 36 -156
120 -190 194 -57 124 -55 71 -61 1612 -3 782 -3 1429 0 1439 6 15 31 16 260
13 l254 -3 54 -41z m-1353 -498 c77 -40 103 -125 63 -203 -47 -93 -133 -120
-233 -73 -59 28 -75 154 -28 220 46 65 134 89 198 56z m1467 -6 c63 -39 76
-137 30 -216 -29 -50 -68 -74 -119 -74 -80 0 -130 39 -146 115 -15 72 2 119
58 162 36 27 52 33 94 33 33 0 62 -7 83 -20z m-1479 -339 c32 -19 74 -92 74
-127 0 -69 -45 -140 -106 -169 -32 -15 -44 -16 -91 -6 -42 10 -59 20 -80 47
-55 73 -38 173 42 242 29 26 44 32 83 32 29 0 59 -8 78 -19z m1447 5 c18 -7
47 -30 65 -50 28 -32 32 -44 32 -92 0 -64 -16 -101 -62 -139 -29 -25 -38 -27
-95 -23 -58 4 -67 8 -101 41 -36 36 -37 40 -37 106 0 62 3 73 31 107 45 56
108 75 167 50z m-2102 -236 c19 -5 48 -24 65 -41 27 -28 29 -36 28 -102 0 -70
-2 -76 -73 -207 -40 -74 -97 -180 -126 -235 -29 -55 -81 -152 -115 -215 -33
-63 -62 -118 -63 -122 -1 -3 33 -47 76 -97 43 -50 87 -106 97 -125 l20 -33
181 -5 c147 -4 183 -8 190 -20 4 -8 50 -72 101 -142 71 -99 95 -124 103 -114
22 30 83 68 109 68 52 0 117 -50 129 -100 19 -78 -58 -187 -149 -209 -45 -11
-57 -10 -108 10 -70 25 -109 60 -228 196 l-89 103 -162 0 -162 1 -71 82 c-38
45 -99 121 -134 169 -37 49 -68 82 -71 76 -5 -7 -87 -13 -237 -16 -192 -4
-230 -2 -234 10 -3 7 -5 54 -4 103 l1 90 217 3 c213 2 218 3 232 25 26 42 262
512 273 543 8 23 7 44 -2 82 -16 60 -6 109 31 159 32 42 62 58 134 72 3 0 21
-4 41 -9z m2696 -10 c75 -33 108 -119 78 -201 -9 -24 -19 -52 -22 -61 -3 -11
25 -71 73 -155 94 -168 179 -322 212 -385 l25 -48 219 0 219 0 -2 -104 -1
-103 -67 -7 c-99 -9 -360 -7 -379 3 -14 7 -47 -23 -172 -153 l-155 -161 -142
-5 -143 -5 -62 -70 c-90 -102 -208 -213 -242 -226 -22 -10 -42 -10 -82 -1 -97
20 -137 66 -138 159 -1 56 17 89 68 127 35 27 112 27 151 2 32 -21 19 -32 136
109 l83 100 144 5 144 6 37 40 c20 22 69 76 109 119 l73 80 -37 70 c-81 153
-149 274 -196 348 -27 43 -76 130 -109 193 -68 131 -73 167 -35 243 27 51 54
74 107 89 49 14 59 14 106 -8z"/>
</g>
</svg>
