<svg width="24" height="19" viewBox="0 0 24 19" fill="none" xmlns="http://www.w3.org/2000/svg">
<path d="M22.5 0.0595703H1.5C1.10218 0.0595703 0.720644 0.217606 0.43934 0.49891C0.158035 0.780215 0 1.16175 0 1.55957V16.5596C0 16.9574 0.158035 17.3389 0.43934 17.6202C0.720644 17.9015 1.10218 18.0596 1.5 18.0596H22.5C22.8978 18.0596 23.2794 17.9015 23.5607 17.6202C23.842 17.3389 24 16.9574 24 16.5596V1.55957C24 1.16175 23.842 0.780215 23.5607 0.49891C23.2794 0.217606 22.8978 0.0595703 22.5 0.0595703ZM21.345 16.5596H2.745L7.995 11.1296L6.915 10.0871L1.5 15.6896V2.69957L10.8225 11.9771C11.1035 12.2564 11.4837 12.4133 11.88 12.4133C12.2763 12.4133 12.6565 12.2564 12.9375 11.9771L22.5 2.46707V15.5921L16.98 10.0721L15.9225 11.1296L21.345 16.5596ZM2.4825 1.55957H21.285L11.88 10.9121L2.4825 1.55957Z" fill="#FFAF37"/>
</svg>
