<svg width="31" height="31" viewBox="0 0 31 31" fill="none" xmlns="http://www.w3.org/2000/svg">
<path d="M15.4307 0.0585938C11.36 0.0585938 10.8482 0.0773438 9.24879 0.148594C7.64941 0.223594 6.56004 0.474844 5.60566 0.846094C4.60459 1.22263 3.69784 1.81327 2.94879 2.57672C2.18581 3.32615 1.59524 4.23279 1.21816 5.23359C0.846914 6.18609 0.593789 7.27734 0.520664 8.87109C0.449414 10.4742 0.430664 10.9842 0.430664 15.0605C0.430664 19.133 0.449414 19.643 0.520664 21.2423C0.595664 22.8398 0.846914 23.9292 1.21816 24.8836C1.60254 25.8698 2.11441 26.7061 2.94879 27.5405C3.78129 28.3748 4.61754 28.8886 5.60379 29.2711C6.56004 29.6423 7.64754 29.8955 9.24504 29.9686C10.8463 30.0398 11.3563 30.0586 15.4307 30.0586C19.505 30.0586 20.0132 30.0398 21.6144 29.9686C23.21 29.8936 24.3032 29.6423 25.2575 29.2711C26.258 28.8944 27.1641 28.3037 27.9125 27.5405C28.7469 26.7061 29.2588 25.8698 29.6432 24.8836C30.0125 23.9292 30.2657 22.8398 30.3407 21.2423C30.4119 19.643 30.4307 19.133 30.4307 15.0586C30.4307 10.9842 30.4119 10.4742 30.3407 8.87297C30.2657 7.27734 30.0125 6.18609 29.6432 5.23359C29.2661 4.23277 28.6756 3.32611 27.9125 2.57672C27.1637 1.81299 26.2569 1.2223 25.2557 0.846094C24.2994 0.474844 23.2082 0.221719 21.6125 0.148594C20.0113 0.0773438 19.5032 0.0585938 15.4269 0.0585938H15.4325H15.4307ZM14.0863 2.76234H15.4325C19.4375 2.76234 19.9119 2.77547 21.4925 2.84859C22.955 2.91422 23.75 3.15984 24.2788 3.36422C24.9782 3.63609 25.4788 3.96234 26.0038 4.48734C26.5288 5.01234 26.8532 5.51109 27.125 6.21234C27.3313 6.73922 27.575 7.53422 27.6407 8.99672C27.7138 10.5773 27.7288 11.0517 27.7288 15.0548C27.7288 19.058 27.7138 19.5342 27.6407 21.1148C27.575 22.5773 27.3294 23.3705 27.125 23.8992C26.8846 24.5505 26.5007 25.1394 26.0019 25.6223C25.4769 26.1473 24.9782 26.4717 24.2769 26.7436C23.7519 26.9498 22.9569 27.1936 21.4925 27.2611C19.9119 27.3323 19.4375 27.3492 15.4325 27.3492C11.4275 27.3492 10.9513 27.3323 9.37066 27.2611C7.90816 27.1936 7.11504 26.9498 6.58629 26.7436C5.93472 26.5034 5.34528 26.1203 4.86129 25.6223C4.36207 25.1387 3.97764 24.5492 3.73629 23.8973C3.53191 23.3705 3.28629 22.5755 3.22066 21.113C3.14941 19.5323 3.13441 19.058 3.13441 15.0511C3.13441 11.0461 3.14941 10.5736 3.22066 8.99297C3.28816 7.53047 3.53191 6.73547 3.73816 6.20672C4.01004 5.50734 4.33629 5.00672 4.86129 4.48172C5.38629 3.95672 5.88504 3.63234 6.58629 3.36047C7.11504 3.15422 7.90816 2.91047 9.37066 2.84297C10.7544 2.77922 11.2907 2.76047 14.0863 2.75859V2.76234ZM23.4388 5.25234C23.2024 5.25234 22.9683 5.2989 22.75 5.38936C22.5316 5.47982 22.3331 5.61241 22.166 5.77955C21.9989 5.9467 21.8663 6.14513 21.7758 6.36351C21.6853 6.5819 21.6388 6.81596 21.6388 7.05234C21.6388 7.28872 21.6853 7.52279 21.7758 7.74117C21.8663 7.95956 21.9989 8.15799 22.166 8.32514C22.3331 8.49228 22.5316 8.62487 22.75 8.71533C22.9683 8.80579 23.2024 8.85234 23.4388 8.85234C23.9162 8.85234 24.374 8.6627 24.7116 8.32514C25.0491 7.98757 25.2388 7.52973 25.2388 7.05234C25.2388 6.57495 25.0491 6.11712 24.7116 5.77955C24.374 5.44199 23.9162 5.25234 23.4388 5.25234ZM15.4325 7.35609C14.4108 7.34015 13.3961 7.52763 12.4475 7.90761C11.4989 8.28759 10.6354 8.85248 9.9072 9.56939C9.17901 10.2863 8.60072 11.1409 8.20599 12.0835C7.81126 13.026 7.60798 14.0377 7.60798 15.0595C7.60798 16.0814 7.81126 17.0931 8.20599 18.0356C8.60072 18.9782 9.17901 19.8328 9.9072 20.5497C10.6354 21.2666 11.4989 21.8315 12.4475 22.2115C13.3961 22.5914 14.4108 22.7789 15.4325 22.763C17.4548 22.7314 19.3836 21.9059 20.8025 20.4647C22.2214 19.0234 23.0167 17.082 23.0167 15.0595C23.0167 13.037 22.2214 11.0956 20.8025 9.65437C19.3836 8.21313 17.4548 7.38764 15.4325 7.35609ZM15.4325 10.058C16.7588 10.058 18.0307 10.5848 18.9685 11.5226C19.9063 12.4604 20.4332 13.7323 20.4332 15.0586C20.4332 16.3848 19.9063 17.6568 18.9685 18.5946C18.0307 19.5324 16.7588 20.0592 15.4325 20.0592C14.1063 20.0592 12.8344 19.5324 11.8966 18.5946C10.9588 17.6568 10.4319 16.3848 10.4319 15.0586C10.4319 13.7323 10.9588 12.4604 11.8966 11.5226C12.8344 10.5848 14.1063 10.058 15.4325 10.058Z" fill="#FFAF37"/>
</svg>
