<svg width="31" height="30" viewBox="0 0 31 30" fill="none" xmlns="http://www.w3.org/2000/svg">
<path d="M22.1772 17.9434C21.8123 17.7559 19.9942 16.8653 19.656 16.7447C19.3179 16.6175 19.0701 16.5572 18.8257 16.9322C18.5779 17.3039 17.8748 18.1309 17.6538 18.382C17.4395 18.6297 17.2219 18.6599 16.857 18.4757C14.6873 17.3909 13.2644 16.5405 11.8347 14.0863C11.4564 13.4334 12.213 13.4803 12.9195 12.0707C13.04 11.8229 12.9798 11.612 12.886 11.4245C12.7923 11.237 12.0557 9.42228 11.7477 8.68233C11.4497 7.96247 11.1416 8.06292 10.9173 8.04953C10.703 8.03613 10.4586 8.03613 10.2108 8.03613C9.96307 8.03613 9.56464 8.12988 9.22648 8.49483C8.88831 8.86648 7.93408 9.76044 7.93408 11.5752C7.93408 13.3899 9.25661 15.1476 9.43741 15.3954C9.62491 15.6432 12.0389 19.3663 15.7454 20.9701C18.0891 21.9813 19.0065 22.0683 20.1783 21.8942C20.8915 21.7871 22.3614 21.0036 22.666 20.1364C22.9707 19.2726 22.9707 18.5327 22.8803 18.3786C22.7899 18.2146 22.5422 18.1208 22.1772 17.9434Z" fill="#FFAF37"/>
<path d="M29.2653 9.18738C28.5086 7.38942 27.4238 5.7756 26.041 4.38945C24.6582 3.00666 23.0444 1.9185 21.2431 1.16516C19.4016 0.391736 17.4463 0 15.4307 0H15.3637C13.3347 0.0100445 11.3693 0.411825 9.52114 1.20199C7.73657 1.96538 6.13614 3.05018 4.76674 4.43298C3.39733 5.81578 2.32257 7.4229 1.57928 9.21417C0.809198 11.0691 0.420809 13.0411 0.430854 15.0701C0.440899 17.3938 0.996695 19.7006 2.03798 21.7631V26.8523C2.03798 27.7028 2.7277 28.3925 3.57814 28.3925H8.67071C10.7332 29.4338 13.0401 29.9896 15.3637 29.9996H15.434C17.4396 29.9996 19.3849 29.6112 21.2163 28.8512C23.0076 28.1046 24.6181 27.0331 25.9975 25.6637C27.3803 24.2943 28.4684 22.6939 29.2285 20.9093C30.0187 19.0611 30.4204 17.0958 30.4305 15.0668C30.4405 13.0277 30.0454 11.049 29.2653 9.18738ZM24.2062 23.8524C21.8592 26.176 18.7454 27.455 15.4307 27.455H15.3737C13.3548 27.445 11.3492 26.9427 9.57806 25.9986L9.29681 25.8479H4.58259V21.1337L4.43192 20.8524C3.48774 19.0812 2.98551 17.0757 2.97547 15.0567C2.96207 11.7186 4.23773 8.58471 6.5781 6.22425C8.91512 3.86379 12.039 2.558 15.3771 2.54461H15.434C17.1081 2.54461 18.732 2.86938 20.2621 3.51223C21.7554 4.13834 23.0946 5.039 24.2464 6.19077C25.3948 7.33919 26.2988 8.68181 26.9249 10.1751C27.5745 11.722 27.8993 13.3626 27.8926 15.0567C27.8725 18.3915 26.5633 21.5154 24.2062 23.8524Z" fill="#FFAF37"/>
</svg>
