<svg width="30" height="31" viewBox="0 0 30 31" fill="none" xmlns="http://www.w3.org/2000/svg">
<g id="Group 447">
<path id="Vector" d="M16.5 7.7583H13.5V15.8793L18.4395 20.8188L20.5605 18.6978L16.5 14.6373V7.7583Z" fill="#FFAF37"/>
<path id="Vector_2" d="M15 0.258301C6.729 0.258301 0 6.9873 0 15.2583C0 23.5293 6.729 30.2583 15 30.2583C23.271 30.2583 30 23.5293 30 15.2583C30 6.9873 23.271 0.258301 15 0.258301ZM15 27.2583C8.3835 27.2583 3 21.8748 3 15.2583C3 8.6418 8.3835 3.2583 15 3.2583C21.6165 3.2583 27 8.6418 27 15.2583C27 21.8748 21.6165 27.2583 15 27.2583Z" fill="#FFAF37"/>
</g>
</svg>
